<svg version="1.1" xmlns="http://www.w3.org/2000/svg" viewBox="0 0 60.28185809033721 54.72633365506999" width="120.56371618067442" height="109.45266731013999">
  <!-- svg-source:excalidraw -->
  
  <defs>
    <style class="style-fonts">
      
    </style>
    
  </defs>
  <rect x="0" y="0" width="60.28185809033721" height="54.72633365506999" fill="#ffffff"></rect><g stroke-linecap="round" transform="translate(10.061642495874366 10.071618925391931) rotate(180.20467821132524 20.079286549293784 17.291547902143066)"><path d="M8.65 0 C17.31 0.65, 23.66 1.02, 31.51 0 C34.65 -3.23, 38.03 3.56, 40.16 8.65 C38.45 13.13, 41.68 21.58, 40.16 25.94 C40.69 29.2, 37.01 37.16, 31.51 34.58 C23.75 35.77, 19.97 34.34, 8.65 34.58 C2.36 37.08, -2.13 32.4, 0 25.94 C0.91 21.6, 1.07 11.69, 0 8.65 C2.48 1.22, 1.03 -3.25, 8.65 0" stroke="none" stroke-width="0" fill="#ffffff"></path><path d="M8.65 0 C15.27 -1.5, 18.34 -0.48, 31.51 0 M8.65 0 C14.97 -0.76, 21.43 -0.09, 31.51 0 M31.51 0 C36.4 0.52, 39.23 0.94, 40.16 8.65 M31.51 0 C37 -0.61, 38.94 4.85, 40.16 8.65 M40.16 8.65 C40.24 13.6, 39.97 14.31, 40.16 25.94 M40.16 8.65 C41.1 15.65, 40.18 22.23, 40.16 25.94 M40.16 25.94 C39.69 29.77, 36.7 34.09, 31.51 34.58 M40.16 25.94 C40.47 32.85, 35.08 34.74, 31.51 34.58 M31.51 34.58 C23.84 36.4, 16.31 33.04, 8.65 34.58 M31.51 34.58 C25.76 35.33, 17.9 34.87, 8.65 34.58 M8.65 34.58 C3.1 33.07, -0.87 31.1, 0 25.94 M8.65 34.58 C4.75 36.6, 0.83 32.89, 0 25.94 M0 25.94 C1.18 18.98, 0.4 11.82, 0 8.65 M0 25.94 C-0.1 20.83, 0.37 17.36, 0 8.65 M0 8.65 C1.44 4.81, 3.1 -0.05, 8.65 0 M0 8.65 C2.18 2.63, 1.98 0.01, 8.65 0" stroke="#1e1e1e" stroke-width="2" fill="none"></path></g><g stroke-linecap="round" transform="translate(27.273185885048406 25.143637677843685) rotate(217.8216889630835 1.7911425576207876 8.22187156521204)"><path d="M0.9 0 C1.34 0.06, 2.05 -0.12, 2.69 0 C5.86 -1.27, 3 1.73, 3.58 0.9 C3.47 7.86, 3.36 13.04, 3.58 15.55 C5.39 15.27, 3.94 17.58, 2.69 16.44 C2.04 16.51, 1.82 16.55, 0.9 16.44 C2.57 17.3, 1.66 17.15, 0 15.55 C-1.11 10.18, -1.07 8.81, 0 0.9 C0.89 2.17, 2.46 -2.53, 0.9 0" stroke="none" stroke-width="0" fill="#ffffff"></path><path d="M0.9 0 C1.33 0.03, 1.8 0.06, 2.69 0 M0.9 0 C1.37 -0.05, 1.88 -0.01, 2.69 0 M2.69 0 C2.75 0.85, 2.64 -0.39, 3.58 0.9 M2.69 0 C2.87 0.13, 4.51 0.25, 3.58 0.9 M3.58 0.9 C3.51 4.76, 3.91 7.15, 3.58 15.55 M3.58 0.9 C3.46 5.56, 3.62 10.58, 3.58 15.55 M3.58 15.55 C2.63 16.21, 3.72 16.02, 2.69 16.44 M3.58 15.55 C4.35 16.25, 4.24 16.74, 2.69 16.44 M2.69 16.44 C2.28 16.52, 1.99 16.41, 0.9 16.44 M2.69 16.44 C2.07 16.42, 1.52 16.48, 0.9 16.44 M0.9 16.44 C0.66 16.96, 0.83 16.7, 0 15.55 M0.9 16.44 C-0.49 17.29, -0.23 16.47, 0 15.55 M0 15.55 C-0.47 11.71, -0.65 8.46, 0 0.9 M0 15.55 C-0.01 11.14, 0.29 6.71, 0 0.9 M0 0.9 C-0.39 0.3, 1.01 -0.3, 0.9 0 M0 0.9 C-0.6 0.36, 0.44 -0.62, 0.9 0" stroke="#1e1e1e" stroke-width="1" fill="none"></path></g><g stroke-linecap="round" transform="translate(18.377583042990864 16.558512448198826) rotate(180.20467821132524 9.534711138074272 8.22187156521204)"><path d="M4.11 0 C5.74 0.41, 8.05 -1.77, 14.96 0 C15.57 0.68, 19.07 -0.8, 19.07 4.11 C19.81 8.61, 19.22 9.64, 19.07 12.33 C18.8 17.65, 17.22 18.23, 14.96 16.44 C11.8 16.21, 6.66 17.84, 4.11 16.44 C-0.76 17.14, 2.38 16.5, 0 12.33 C0.52 8.39, 0.97 5.28, 0 4.11 C-1.85 -1.88, -0.41 1.06, 4.11 0" stroke="none" stroke-width="0" fill="#ffffff"></path><path d="M4.11 0 C6.59 -0.19, 10.06 -1, 14.96 0 M4.11 0 C6.99 -0.03, 9.04 0.24, 14.96 0 M14.96 0 C16.77 -1.94, 18.83 0.84, 19.07 4.11 M14.96 0 C16.48 1.97, 16.9 -0.21, 19.07 4.11 M19.07 4.11 C19.04 5.59, 19.79 8.98, 19.07 12.33 M19.07 4.11 C19.11 6.53, 19.05 8.35, 19.07 12.33 M19.07 12.33 C18.5 14.58, 17.97 17.44, 14.96 16.44 M19.07 12.33 C16.88 15.23, 18.7 15.47, 14.96 16.44 M14.96 16.44 C11.26 15.61, 6.91 15.79, 4.11 16.44 M14.96 16.44 C11.84 16.72, 9.11 16.12, 4.11 16.44 M4.11 16.44 C0.5 15.84, 1.62 16.83, 0 12.33 M4.11 16.44 C2.2 17.63, 1.9 16.34, 0 12.33 M0 12.33 C0.17 10.01, -0.49 7.86, 0 4.11 M0 12.33 C0.13 10.44, 0.32 8.94, 0 4.11 M0 4.11 C0.22 1.32, 3.26 -0.22, 4.11 0 M0 4.11 C-0.9 1.38, 3 -0.69, 4.11 0" stroke="#1e1e1e" stroke-width="1" fill="none"></path></g><g stroke-linecap="round" transform="translate(39.5693974212968 15.73163862557169) rotate(180.20467821132524 1.7911425576207876 8.22187156521204)"><path d="M0.9 0 C1.28 -0.21, 1.88 0.04, 2.69 0 C3.29 -1.57, 6.16 -0.97, 3.58 0.9 C3.97 3.64, 3.54 10.39, 3.58 15.55 C3.24 17.43, 5.1 15.57, 2.69 16.44 C2.07 16.6, 1.38 16.49, 0.9 16.44 C2.02 17.48, 2.28 17.01, 0 15.55 C1.24 9.34, -1.05 3.16, 0 0.9 C-1.29 1.07, 1.19 1.87, 0.9 0" stroke="none" stroke-width="0" fill="#ffffff"></path><path d="M0.9 0 C1.27 -0.09, 1.64 0.02, 2.69 0 M0.9 0 C1.25 0.01, 1.63 -0.04, 2.69 0 M2.69 0 C3.16 -0.26, 3.05 1.15, 3.58 0.9 M2.69 0 C2.2 -0.79, 3.17 0.43, 3.58 0.9 M3.58 0.9 C4.21 6.95, 3.45 12.75, 3.58 15.55 M3.58 0.9 C3.49 5.47, 3.47 10.66, 3.58 15.55 M3.58 15.55 C3.72 16.64, 2.33 16.51, 2.69 16.44 M3.58 15.55 C4.08 15.66, 4.05 16.55, 2.69 16.44 M2.69 16.44 C1.99 16.38, 1.29 16.52, 0.9 16.44 M2.69 16.44 C2.01 16.41, 1.3 16.43, 0.9 16.44 M0.9 16.44 C1.11 17.32, 0.36 16.66, 0 15.55 M0.9 16.44 C1.25 17.08, -0.79 16.99, 0 15.55 M0 15.55 C-0.4 10.85, -0.53 7.14, 0 0.9 M0 15.55 C0.24 12.89, 0.02 9.51, 0 0.9 M0 0.9 C0.95 0.19, -0.09 0, 0.9 0 M0 0.9 C0.82 -0.05, -0.31 0.06, 0.9 0" stroke="#1e1e1e" stroke-width="1" fill="none"></path></g></svg>