<svg version="1.1" xmlns="http://www.w3.org/2000/svg" viewBox="0 0 48.45601778213586 55.10433340270478" width="96.91203556427172" height="110.20866680540956">
  <!-- svg-source:excalidraw -->
  
  <defs>
    <style class="style-fonts">
      
    </style>
    
  </defs>
  <rect x="0" y="0" width="48.45601778213586" height="55.10433340270478" fill="#ffffff00"></rect><g stroke-linecap="round"><g transform="translate(24.854085107364426 11.395223438320556) rotate(0 6.881287172592238 6.88128717259228)"><path d="M-0.5 -0.51 C1.73 1.74, 11.28 11.04, 13.6 13.33 M0.25 0.41 C2.36 2.73, 10.97 11.62, 13.09 13.8" stroke="#1e1e1e" stroke-width="1" fill="none"></path></g></g><mask></mask><g stroke-linecap="round"><g transform="translate(24.067507020522044 10.703337866121444) rotate(0 -7.130185736308704 7.13018573630859)"><path d="M-0.09 -0.15 C-2.39 2.3, -11.48 11.86, -13.85 14.29 M-0.8 -0.7 C-3.13 1.88, -11.76 12.64, -14.07 15.01" stroke="#1e1e1e" stroke-width="1" fill="none"></path></g></g><mask></mask><g stroke-linecap="round"><g transform="translate(12.812055886730377 22.876244175975245) rotate(0 -0.009826581708239246 10.823979751617856)"><path d="M0.01 -0.3 C0.1 3.32, 0.02 17.91, 0.04 21.51 M-0.65 0.74 C-0.58 4.46, -0.45 18.64, -0.36 22.14" stroke="#1e1e1e" stroke-width="1" fill="none"></path></g></g><mask></mask><g stroke-linecap="round"><g transform="translate(35.01077768955338 23.214171888532036) rotate(0 -0.009826581708239246 10.823979751617856)"><path d="M0.48 -0.04 C0.31 3.66, -0.48 18.21, -0.48 21.89 M0.07 -0.53 C0.02 3.02, 0.46 17.44, 0.52 21.05" stroke="#1e1e1e" stroke-width="1" fill="none"></path></g></g><mask></mask><g stroke-linecap="round"><g transform="translate(34.681681808281155 44.593724979292006) rotate(0 -3.4781632619092306 -0.09513917744786227)"><path d="M-0.11 0.16 C-1.32 0.17, -5.91 -0.2, -7.09 -0.23 M0.48 -0.07 C-0.8 0.03, -6.28 0.29, -7.44 0.2" stroke="#1e1e1e" stroke-width="1" fill="none"></path></g></g><mask></mask><g stroke-linecap="round"><g transform="translate(27.26673084918457 44.05788883914795) rotate(0 -0.08977922378858239 -5.2281881315844885)"><path d="M-0.19 -0.45 C-0.09 -2.05, 0.26 -8.49, 0.22 -10.11 M0.71 0.51 C0.82 -1.2, 0.26 -8.96, -0.01 -10.89" stroke="#1e1e1e" stroke-width="1" fill="none"></path></g></g><mask></mask><g stroke-linecap="round"><g transform="translate(20.594350797106927 43.73836128974099) rotate(0 -0.08977922378858239 -5.228188131584474)"><path d="M-0.53 0.16 C-0.72 -1.66, -0.77 -9.16, -0.64 -10.87 M0.2 -0.23 C0.14 -2, 0.37 -8.6, 0.36 -10.39" stroke="#1e1e1e" stroke-width="1" fill="none"></path></g></g><mask></mask><g stroke-linecap="round"><g transform="translate(19.801208727757057 44.5858442745629) rotate(0 -3.4781632619092306 -0.09513917744786227)"><path d="M-0.35 0.23 C-1.44 0.17, -5.51 0.04, -6.62 -0.02 M0.11 0.04 C-0.98 0.03, -5.49 -0.59, -6.72 -0.56" stroke="#1e1e1e" stroke-width="1" fill="none"></path></g></g><mask></mask><g stroke-linecap="round"><g transform="translate(27.09806569992952 33.18011784423257) rotate(0 -3.4781632619092306 -0.09513917744786227)"><path d="M0.22 0.11 C-0.98 0.08, -5.65 -0.28, -6.83 -0.3 M-0.1 -0.14 C-1.36 -0.11, -5.89 0.17, -7.04 0.1" stroke="#1e1e1e" stroke-width="1" fill="none"></path></g></g><mask></mask></svg>