<svg version="1.1" xmlns="http://www.w3.org/2000/svg" viewBox="0 0 60.15857309858757 54.58309580428613" width="120.31714619717513" height="109.16619160857226">
  <!-- svg-source:excalidraw -->
  
  <defs>
    <style class="style-fonts">
      
    </style>
    
  </defs>
  <rect x="0" y="0" width="60.15857309858757" height="54.58309580428613" fill="#ffffff"></rect><g stroke-linecap="round" transform="translate(10 10) rotate(0 20.079286549293784 17.291547902143066)"><path d="M8.65 0 C13.96 -0.29, 18.44 0.47, 31.51 0 M8.65 0 C14.42 0.33, 19.16 -0.16, 31.51 0 M31.51 0 C37.09 0.99, 39.17 2.53, 40.16 8.65 M31.51 0 C36.79 -0.59, 42.17 4.54, 40.16 8.65 M40.16 8.65 C38.63 13.96, 40 20.07, 40.16 25.94 M40.16 8.65 C40.53 12.07, 40.32 16.04, 40.16 25.94 M40.16 25.94 C38.73 30.6, 37.17 35.14, 31.51 34.58 M40.16 25.94 C40.77 29.79, 38.26 34.8, 31.51 34.58 M31.51 34.58 C23.96 33.31, 16.39 36, 8.65 34.58 M31.51 34.58 C23.71 34.84, 15.27 34.03, 8.65 34.58 M8.65 34.58 C2.18 35, -1.76 31.07, 0 25.94 M8.65 34.58 C0.76 34.67, 0.92 31.94, 0 25.94 M0 25.94 C-1.15 23.33, -0.23 17.41, 0 8.65 M0 25.94 C-0.19 20.6, -0.06 16.9, 0 8.65 M0 8.65 C-1.22 2.06, 3.28 -1.69, 8.65 0 M0 8.65 C-2.17 4.84, 3.25 -0.5, 8.65 0" stroke="#1e1e1e" stroke-width="2" fill="none"></path></g><g stroke-linecap="round" transform="translate(22.782422532979126 21.644481316355154) rotate(0 9.534711138074272 8.22187156521204)"><path d="M4.11 0 C8.8 1.79, 12.07 -1.52, 14.96 0 C20.53 -0.24, 21.72 2.25, 19.07 4.11 C17.98 5.55, 20.05 10.3, 19.07 12.33 C19.78 15.16, 14.98 16, 14.96 16.44 C12.37 15.5, 9.03 16.48, 4.11 16.44 C3.07 15.73, -2.1 16.17, 0 12.33 C0.8 10.85, -1.21 6.74, 0 4.11 C-1.26 1.78, -1.44 2.91, 4.11 0" stroke="none" stroke-width="0" fill="#1e1e1e"></path><path d="M4.11 0 C8.05 0.87, 12.97 -0.24, 14.96 0 M4.11 0 C6.81 0.11, 9.31 -0.4, 14.96 0 M14.96 0 C17.58 1.25, 18.82 2.26, 19.07 4.11 M14.96 0 C18.98 -2.01, 19.92 1.38, 19.07 4.11 M19.07 4.11 C19.3 5.85, 19.14 7.26, 19.07 12.33 M19.07 4.11 C19.09 6.29, 19.5 8.11, 19.07 12.33 M19.07 12.33 C20.78 13.94, 16.8 17.78, 14.96 16.44 M19.07 12.33 C16.9 13.98, 15.56 15.51, 14.96 16.44 M14.96 16.44 C12.03 17.29, 6.74 17.21, 4.11 16.44 M14.96 16.44 C12.78 16.21, 9.76 16.67, 4.11 16.44 M4.11 16.44 C0.25 15.92, -1.32 17.01, 0 12.33 M4.11 16.44 C0.71 16.82, 0.48 16.33, 0 12.33 M0 12.33 C-0.47 10.6, -0.51 8.21, 0 4.11 M0 12.33 C-0.29 9.91, 0.04 6.91, 0 4.11 M0 4.11 C-0.04 1.04, 0.49 1.34, 4.11 0 M0 4.11 C-0.55 2.59, 3.2 -0.88, 4.11 0" stroke="#1e1e1e" stroke-width="1" fill="none"></path></g><g stroke-linecap="round" transform="translate(17.080784966901774 22.519391046171563) rotate(0 1.7911425576207876 8.22187156521204)"><path d="M0.9 0 C1.55 -0.2, 1.57 0.06, 2.69 0 C1.76 1.05, 3.59 -0.66, 3.58 0.9 C4.85 4.6, 2.21 9.69, 3.58 15.55 C2.79 18.36, 4.4 16.49, 2.69 16.44 C2.05 16.5, 1.76 16.34, 0.9 16.44 C2.02 16.93, -2.07 16.51, 0 15.55 C-1.7 10.39, 0.89 4.85, 0 0.9 C2.52 0.16, 1.62 0.57, 0.9 0" stroke="none" stroke-width="0" fill="#1e1e1e"></path><path d="M0.9 0 C1.34 -0.09, 1.97 -0.05, 2.69 0 M0.9 0 C1.31 0.01, 1.73 -0.01, 2.69 0 M2.69 0 C2.41 -0.98, 4.25 0.94, 3.58 0.9 M2.69 0 C2.17 -0.52, 2.81 0.76, 3.58 0.9 M3.58 0.9 C4.27 6.41, 3.06 12.24, 3.58 15.55 M3.58 0.9 C3.38 4.84, 3.69 8.59, 3.58 15.55 M3.58 15.55 C3.6 17.14, 2.59 16.4, 2.69 16.44 M3.58 15.55 C3.07 15.65, 4.23 15.45, 2.69 16.44 M2.69 16.44 C2.29 16.43, 1.87 16.44, 0.9 16.44 M2.69 16.44 C2.14 16.42, 1.55 16.42, 0.9 16.44 M0.9 16.44 C-0.03 15.69, -0.66 15.65, 0 15.55 M0.9 16.44 C-0.17 15.86, 0.05 16.75, 0 15.55 M0 15.55 C0.23 10.28, 0.21 6.25, 0 0.9 M0 15.55 C-0.24 10.51, -0.24 5.31, 0 0.9 M0 0.9 C-0.4 0.35, 1.25 -0.05, 0.9 0 M0 0.9 C0.99 -0.27, -0.72 -0.7, 0.9 0" stroke="#1e1e1e" stroke-width="1" fill="none"></path></g><g stroke-linecap="round" transform="translate(29.34329555032582 13.063526278970926) rotate(37.61701075175823 1.7911425576207876 8.22187156521204)"><path d="M0.9 0 C1.76 0.04, 2.36 -0.11, 2.69 0 C5.85 -1.21, 4.25 -2.04, 3.58 0.9 C4.19 3.76, 3.54 9.31, 3.58 15.55 C3.73 17.66, 2.75 13.88, 2.69 16.44 C2.1 16.42, 1.85 16.51, 0.9 16.44 C2.17 18.03, -0.58 16.99, 0 15.55 C-0.21 10.75, 1.14 8.46, 0 0.9 C-2.38 1.65, -1.35 -2.28, 0.9 0" stroke="none" stroke-width="0" fill="#1e1e1e"></path><path d="M0.9 0 C1.36 0.03, 1.83 0.08, 2.69 0 M0.9 0 C1.6 0.01, 2.3 0.03, 2.69 0 M2.69 0 C2.41 -0.77, 2.61 -0.07, 3.58 0.9 M2.69 0 C3.53 0.09, 4.28 -0.5, 3.58 0.9 M3.58 0.9 C2.91 6.06, 3.56 10.3, 3.58 15.55 M3.58 0.9 C3.69 4.91, 3.84 8.09, 3.58 15.55 M3.58 15.55 C3.44 15.51, 2.72 15.87, 2.69 16.44 M3.58 15.55 C4.26 16.02, 3.86 16.06, 2.69 16.44 M2.69 16.44 C2.05 16.47, 1.29 16.44, 0.9 16.44 M2.69 16.44 C1.94 16.47, 1.24 16.45, 0.9 16.44 M0.9 16.44 C0.51 15.62, -0.11 16.76, 0 15.55 M0.9 16.44 C0.33 16.47, 0.48 15.15, 0 15.55 M0 15.55 C0.22 12.64, -0.44 8.35, 0 0.9 M0 15.55 C-0.04 11.75, 0.32 7.85, 0 0.9 M0 0.9 C-0.23 0.51, 0.31 0.64, 0.9 0 M0 0.9 C-0.82 1.11, -0.39 -0.44, 0.9 0" stroke="#1e1e1e" stroke-width="1" fill="none"></path></g></svg>